<?xml version="1.0" encoding="UTF-8"?>
<svg width="16px" height="16px" viewBox="0 0 16 16" version="1.1" xmlns="http://www.w3.org/2000/svg" xmlns:xlink="http://www.w3.org/1999/xlink">
    <!-- Generator: sketchtool 58 (101010) - https://sketch.com -->
    <title>4EE3EEF2-B481-4FAD-BDC1-02E82FAF86C4</title>
    <desc>Created with sketchtool.</desc>
    <g id="💻-Desktop-/-Fase-2" stroke="none" stroke-width="1" fill="none" fill-rule="evenodd">
        <g id="Dashboard---Eco-reto-04" transform="translate(-27.000000, -236.000000)">
            <g id="24px-(1)" transform="translate(23.000000, 232.000000)">
                <polygon id="Path" points="0 0 24 0 24 24 0 24"></polygon>
                <path d="M12,6 C13.1,6 14,6.9 14,8 C14,9.1 13.1,10 12,10 C10.9,10 10,9.1 10,8 C10,6.9 10.9,6 12,6 L12,6 Z M12,15 C14.7,15 17.8,16.29 18,17 L18,18 L6,18 L6,17.01 C6.2,16.29 9.3,15 12,15 L12,15 Z M12,4 C9.79,4 8,5.79 8,8 C8,10.21 9.79,12 12,12 C14.21,12 16,10.21 16,8 C16,5.79 14.21,4 12,4 L12,4 Z M12,13 C9.33,13 4,14.34 4,17 L4,20 L20,20 L20,17 C20,14.34 14.67,13 12,13 L12,13 Z" id="Shape" fill="#000000" fill-rule="nonzero"></path>
            </g>
        </g>
    </g>
</svg>