<?xml version="1.0" encoding="UTF-8"?>
<svg width="18px" height="20px" viewBox="0 0 18 20" version="1.1" xmlns="http://www.w3.org/2000/svg" xmlns:xlink="http://www.w3.org/1999/xlink">
    <!-- Generator: sketchtool 58 (101010) - https://sketch.com -->
    <title>12336511-CF1A-43EF-9141-19A77819EAF0</title>
    <desc>Created with sketchtool.</desc>
    <g id="💻-Desktop-/-Fase-2" stroke="none" stroke-width="1" fill="none" fill-rule="evenodd">
        <g id="Dashboard---Eco-reto-04" transform="translate(-26.000000, -160.000000)">
            <g id="24px" transform="translate(23.000000, 158.000000)">
                <polygon id="Path" points="0 0 24 0 24 24 0 24"></polygon>
                <path d="M19,4 L18,4 L18,2 L16,2 L16,4 L8,4 L8,2 L6,2 L6,4 L5,4 C3.89,4 3.01,4.9 3.01,6 L3,20 C3,21.1 3.89,22 5,22 L19,22 C20.1,22 21,21.1 21,20 L21,6 C21,4.9 20.1,4 19,4 Z M19,20 L5,20 L5,10 L19,10 L19,20 Z M19,8 L5,8 L5,6 L19,6 L19,8 Z M12,13 L17,13 L17,18 L12,18 L12,13 Z" id="Shape" fill="#000000" fill-rule="nonzero"></path>
            </g>
        </g>
    </g>
</svg>