<?xml version="1.0" encoding="UTF-8"?>
<svg width="20px" height="17px" viewBox="0 0 20 17" version="1.1" xmlns="http://www.w3.org/2000/svg" xmlns:xlink="http://www.w3.org/1999/xlink">
    <!-- Generator: sketchtool 58 (101010) - https://sketch.com -->
    <title>8A751B9C-8AC6-4ECE-B27F-E7C17589DCAA</title>
    <desc>Created with sketchtool.</desc>
    <g id="💻-Desktop-/-Fase-2" stroke="none" stroke-width="1" fill="none" fill-rule="evenodd">
        <g id="Dashboard---Eco-reto-04" transform="translate(-25.000000, -87.000000)">
            <g id="24px-(2)" transform="translate(23.000000, 84.000000)">
                <polygon id="Path" points="0 0 24 0 24 24 0 24"></polygon>
                <path d="M12,5.69 L17,10.19 L17,18 L15,18 L15,12 L9,12 L9,18 L7,18 L7,10.19 L12,5.69 L12,5.69 Z M12,3 L2,12 L5,12 L5,20 L11,20 L11,14 L13,14 L13,20 L19,20 L19,12 L22,12 L12,3 Z" id="Shape" fill="#000000" fill-rule="nonzero"></path>
            </g>
        </g>
    </g>
</svg>