<?xml version="1.0" encoding="UTF-8"?>
<svg width="122px" height="30px" viewBox="0 0 122 30" version="1.1" xmlns="http://www.w3.org/2000/svg" xmlns:xlink="http://www.w3.org/1999/xlink">
    <!-- Generator: sketchtool 58 (101010) - https://sketch.com -->
    <title>18684284-1A10-4B96-B672-97EBB7215F45</title>
    <desc>Created with sketchtool.</desc>
    <g id="💻-Desktop-/-Fase-2" stroke="none" stroke-width="1" fill="none" fill-rule="evenodd">
        <g id="Dashboard---Eco-reto-04" transform="translate(-32.000000, -15.000000)" fill="#FFFFFF">
            <g id="heeader">
                <g id="logotipo-/-horizontal-/-blanco" transform="translate(32.000000, 15.000000)">
                    <g>
                        <path d="M14.2160391,0 C21.4312256,0 30,5.38796559 30,14.7571207 C30,24.1241383 22.3074092,30 14.2160391,30 C6.13463178,30 0,23.6156683 0,16.4388393 C0,9.25586491 4.43153974,6.41372308 4.43153974,6.41372308 C4.43153974,6.41372308 1.65543239,8.60391172 1.65543239,14.7571207 C1.65543239,20.9097953 7.89076875,25.8977716 14.2160391,25.8977716 C20.5512723,25.8977716 25.668357,20.9562871 25.668357,14.7571207 C25.668357,8.55661839 19.8729974,4.12253514 14.2160391,4.12253514 C8.56823587,4.12253514 5.74554593,7.62170683 5.74554593,7.62170683 L5.74554593,7.62170683 L2.77960777,4.78303853 C3.62805726,3.96515791 7.01296953,0 14.2160391,0 Z M19.7342535,10.3683673 C21.9694421,12.8237169 21.5608009,15.225562 21.524194,15.7648658 L19.5523038,15.6448135 C19.5523038,15.6448135 19.966097,13.58742 18.2095094,11.6647194 C16.4580739,9.73749361 13.0235357,9.14734725 10.7441477,11.0921417 C8.45743835,13.0382671 8.22315436,16.3257311 10.1912483,18.4829463 C12.1550037,20.6414925 15.929308,21.2052859 18.1929685,19.2769953 C20.4623235,17.3481723 20.4089046,15.7190809 20.4089046,15.7190809 C20.4089046,15.7190809 20.7372818,18.1156022 18.0904693,20.3659844 C15.4452837,22.6158342 11.1885823,22.5186743 8.67979121,19.7675861 C6.16720389,17.016764 5.94593567,12.5511369 9.39593012,9.61744129 C12.8497208,6.67522759 17.4939128,7.91355005 19.7342535,10.3683673 Z" id="Fill-4"></path>
                        <text id="ECOCE" font-family="Montserrat-Bold, Montserrat" font-size="20" font-weight="bold" letter-spacing="-0.13">
                            <tspan x="43" y="22">ECOCE</tspan>
                        </text>
                        <path d="M119.155981,9.0900574 C119.211177,9.01473446 119.244613,8.93684952 119.261066,8.85127857 C119.283357,8.76929442 119.274865,8.68987227 119.259474,8.62018575 C119.233468,8.54025121 119.170841,8.4797879 119.085923,8.40139056 C119.015866,8.33939004 118.944748,8.3127452 118.88106,8.3127452 C118.811533,8.30352198 118.752622,8.3127452 118.689464,8.33939004 C118.629491,8.3685969 118.561557,8.41625018 118.518037,8.47312668 C118.458063,8.51770556 118.406582,8.57919368 118.359877,8.647343 L118.011715,9.13924788 L118.733515,9.69059128 L119.000475,9.33959664 C119.046118,9.25402569 119.100784,9.17101674 119.155981,9.0900574 L119.155981,9.0900574 Z M119.707945,10.8486174 L117.596149,9.24275287 L118.197472,8.40139056 C118.370492,8.15236371 118.546696,8.01760226 118.727146,7.97353579 C118.908127,7.94176693 119.085923,7.98685821 119.274865,8.13699168 C119.377828,8.2066782 119.438863,8.28046394 119.487159,8.36142328 C119.538641,8.44238263 119.567831,8.51770556 119.580569,8.62018575 C119.591184,8.7042195 119.587468,8.78005484 119.567831,8.8692126 C119.547133,8.95837036 119.520065,9.04445371 119.477075,9.13924788 L120.875563,9.19919879 L120.644163,9.50612694 L119.274865,9.42004359 L118.955893,9.8694192 L119.896887,10.5857557 L119.707945,10.8486174 Z M117.248517,8.89739465 C117.19279,9.15820672 117.182706,9.42004359 117.221981,9.65728522 C117.260724,9.90170046 117.346703,10.1522645 117.483633,10.3705473 C117.613663,10.5949789 117.786683,10.7958401 118.011715,10.9557092 C118.234093,11.1217271 118.458063,11.2431661 118.699548,11.3118278 C118.95324,11.3676795 119.196316,11.3835639 119.43727,11.3461587 C119.678755,11.3118278 119.914401,11.2236948 120.121919,11.1017434 C120.35385,10.9582712 120.542792,10.7763688 120.700951,10.5457884 C120.868664,10.3213568 120.976934,10.0769416 121.030538,9.82432792 C121.087327,9.56249105 121.098472,9.3134642 121.058667,9.05828854 C121.013024,8.81079889 120.932352,8.57560687 120.794361,8.33939004 C120.671761,8.12059485 120.49078,7.92229569 120.268402,7.7583274 C120.053454,7.59948311 119.816746,7.47701929 119.580569,7.41091957 C119.323162,7.35301827 119.085923,7.33867104 118.83807,7.37556391 C118.605077,7.41091957 118.367838,7.49444092 118.147583,7.62920237 C117.927328,7.7583274 117.744224,7.94176693 117.583411,8.16517373 C117.417822,8.40139056 117.302652,8.63402057 117.248517,8.89739465 L117.248517,8.89739465 Z M117.989424,7.33047263 C118.243646,7.17060354 118.518037,7.07068536 118.791896,7.02918089 C119.085923,6.97845319 119.377828,6.99485002 119.66071,7.07068536 C119.951022,7.1460083 120.220105,7.27103412 120.47645,7.46472167 C120.73598,7.66404563 120.940313,7.89257644 121.087327,8.16107452 C121.246017,8.424961 121.351633,8.7042195 121.381354,8.99885003 C121.426467,9.29706737 121.40736,9.58862349 121.351633,9.88684083 C121.277861,10.1896698 121.145177,10.4812259 120.950397,10.7425504 C120.773131,11.0064368 120.542792,11.2236948 120.294408,11.3835639 C120.02904,11.5413834 119.75465,11.6397644 119.477075,11.6904921 C119.196316,11.7381454 118.915557,11.7191865 118.61463,11.6551364 C118.330687,11.5731523 118.060012,11.4465892 117.793052,11.2539265 C117.53936,11.0520405 117.342988,10.8235097 117.186421,10.5524496 C117.036223,10.2911252 116.939099,10.0159659 116.889209,9.72902135 C116.854712,9.42106839 116.859488,9.12182625 116.929545,8.82463372 C116.996418,8.51770556 117.133348,8.24203387 117.32229,7.97353579 C117.508578,7.69632689 117.732548,7.48726731 117.989424,7.33047263 L117.989424,7.33047263 Z" id="Fill-16-Copy" transform="translate(119.137394, 9.358571) rotate(54.000000) translate(-119.137394, -9.358571) "></path>
                    </g>
                </g>
            </g>
        </g>
    </g>
</svg>